<svg width="23" height="23" viewBox="0 0 23 23" fill="none" xmlns="http://www.w3.org/2000/svg">
<path d="M9.58246 16.8531L17.2859 9.14967L15.7562 7.6199L9.58246 13.7936L6.46828 10.6794L4.93851 12.2092L9.58246 16.8531ZM11.1122 22.7537C9.60067 22.7537 8.18017 22.4669 6.85072 21.8932C5.52128 21.3195 4.36485 20.541 3.38143 19.5576C2.398 18.5741 1.61946 17.4177 1.0458 16.0883C0.472134 14.7588 0.185303 13.3383 0.185303 11.8268C0.185303 10.3152 0.472134 8.89471 1.0458 7.56526C1.61946 6.23582 2.398 5.07939 3.38143 4.09597C4.36485 3.11254 5.52128 2.334 6.85072 1.76034C8.18017 1.18667 9.60067 0.899841 11.1122 0.899841C12.6238 0.899841 14.0443 1.18667 15.3737 1.76034C16.7032 2.334 17.8596 3.11254 18.843 4.09597C19.8264 5.07939 20.605 6.23582 21.1786 7.56526C21.7523 8.89471 22.0391 10.3152 22.0391 11.8268C22.0391 13.3383 21.7523 14.7588 21.1786 16.0883C20.605 17.4177 19.8264 18.5741 18.843 19.5576C17.8596 20.541 16.7032 21.3195 15.3737 21.8932C14.0443 22.4669 12.6238 22.7537 11.1122 22.7537Z" fill="#1EB700"/>
</svg>
