<svg width="32" height="32" viewBox="0 0 32 32" fill="none" xmlns="http://www.w3.org/2000/svg">
<mask id="mask0_1_104" style="mask-type:alpha" maskUnits="userSpaceOnUse" x="0" y="0" width="32" height="32">
<rect width="32" height="32" fill="#D9D9D9"/>
</mask>
<g mask="url(#mask0_1_104)">
<path d="M1.33333 23.4359V22.2846C1.33333 21.4657 1.77088 20.7862 2.64599 20.2459C3.52133 19.7059 4.64788 19.4359 6.02566 19.4359C6.229 19.4359 6.44688 19.4457 6.67933 19.4653C6.91199 19.4851 7.15911 19.5172 7.42066 19.5616C7.21199 19.9256 7.05977 20.2991 6.96399 20.6819C6.86844 21.0648 6.82066 21.4486 6.82066 21.8333V23.4359H1.33333ZM9.33333 23.4359V21.9359C9.33333 21.3986 9.48933 20.9074 9.80133 20.4623C10.1133 20.0174 10.5736 19.6325 11.182 19.3076C11.7907 18.9829 12.4997 18.7394 13.309 18.5769C14.1183 18.4145 15.0119 18.3333 15.9897 18.3333C16.9863 18.3333 17.8893 18.4145 18.6987 18.5769C19.508 18.7394 20.217 18.9829 20.8257 19.3076C21.4341 19.6325 21.8931 20.0174 22.2027 20.4623C22.512 20.9074 22.6667 21.3986 22.6667 21.9359V23.4359H9.33333ZM25.1793 23.4359V21.8409C25.1793 21.4156 25.1328 21.0148 25.0397 20.6386C24.9466 20.2624 24.8069 19.9034 24.6207 19.5616C24.8991 19.5172 25.1491 19.4851 25.3707 19.4653C25.592 19.4457 25.8018 19.4359 26 19.4359C27.3778 19.4359 28.5 19.7047 29.3667 20.2423C30.2333 20.7798 30.6667 21.4606 30.6667 22.2846V23.4359H25.1793ZM10.705 22.1026H21.3027V21.8206C21.2513 21.1879 20.7329 20.6708 19.7473 20.2693C18.762 19.8675 17.5129 19.6666 16 19.6666C14.4871 19.6666 13.238 19.8675 12.2527 20.2693C11.2671 20.6708 10.7512 21.1879 10.705 21.8206V22.1026ZM6.01866 18.1793C5.49511 18.1793 5.04911 17.9935 4.68066 17.6219C4.31244 17.2504 4.12833 16.8037 4.12833 16.2819C4.12833 15.7657 4.31411 15.3247 4.68566 14.9589C5.05722 14.5932 5.50388 14.4103 6.02566 14.4103C6.54188 14.4103 6.98722 14.5932 7.36166 14.9589C7.73588 15.3247 7.923 15.7683 7.923 16.2896C7.923 16.7956 7.74055 17.2371 7.37566 17.6139C7.01055 17.9908 6.55822 18.1793 6.01866 18.1793ZM26 18.1793C25.4889 18.1793 25.0449 17.9908 24.668 17.6139C24.2911 17.2371 24.1027 16.7956 24.1027 16.2896C24.1027 15.7683 24.2911 15.3247 24.668 14.9589C25.0449 14.5932 25.4906 14.4103 26.005 14.4103C26.535 14.4103 26.9829 14.5932 27.3487 14.9589C27.7144 15.3247 27.8973 15.7657 27.8973 16.2819C27.8973 16.8037 27.7156 17.2504 27.352 17.6219C26.9882 17.9935 26.5376 18.1793 26 18.1793ZM16.009 17.3333C15.1997 17.3333 14.5087 17.0491 13.936 16.4806C13.3633 15.9124 13.077 15.2223 13.077 14.4103C13.077 13.5821 13.3611 12.8878 13.9293 12.3276C14.4978 11.7672 15.188 11.4869 16 11.4869C16.8282 11.4869 17.5224 11.7663 18.0827 12.3249C18.6429 12.8834 18.923 13.5755 18.923 14.4013C18.923 15.2106 18.6438 15.9016 18.0853 16.4743C17.5269 17.0469 16.8348 17.3333 16.009 17.3333ZM16.0127 15.9999C16.4504 15.9999 16.8227 15.8423 17.1293 15.5269C17.4362 15.2114 17.5897 14.8348 17.5897 14.3973C17.5897 13.9597 17.4373 13.5875 17.1327 13.2806C16.828 12.9737 16.4504 12.8203 16 12.8203C15.5709 12.8203 15.1987 12.9727 14.8833 13.2776C14.568 13.5823 14.4103 13.9598 14.4103 14.4103C14.4103 14.8392 14.568 15.2114 14.8833 15.5269C15.1987 15.8423 15.5751 15.9999 16.0127 15.9999Z" fill="#535353"/>
</g>
</svg>
