<svg width="43" height="43" viewBox="0 0 43 43" fill="none" xmlns="http://www.w3.org/2000/svg">
<path d="M16.9034 33.6513V28.1565C16.9033 26.7641 18.0356 25.6329 19.438 25.6241H24.5876C25.9963 25.6241 27.1383 26.7579 27.1383 28.1565V33.6354C27.1383 34.843 28.1197 35.8245 29.3361 35.8333H32.8494C34.4902 35.8375 36.0653 35.1933 37.227 34.0429C38.3888 32.8925 39.0417 31.3304 39.0417 29.7014V14.093C39.0417 12.7771 38.4541 11.5289 37.4374 10.6846L25.502 1.20806C23.4157 -0.449489 20.4359 -0.395944 18.4113 1.33548L6.73256 10.6846C5.66783 11.504 5.03145 12.7559 5 14.093V29.6855C5 33.0808 7.77239 35.8333 11.1923 35.8333H14.6254C15.211 35.8375 15.7742 35.6095 16.1898 35.1998C16.6054 34.7902 16.8392 34.2328 16.8392 33.6513H16.9034Z" fill="#576474"/>
</svg>
